# This file uses centimeters as units for non-parametric coordinates.

mtllib locker.mtl
g default
v 0.339355 1.552871 0.196059
v 0.339355 -0.000413 0.196059
v 0.339355 1.552871 -0.196059
v 0.339355 -0.000413 -0.196059
v -0.339355 1.552871 -0.196059
v -0.339355 -0.000413 -0.196059
v -0.339355 1.552871 0.196059
v -0.339355 -0.000413 0.196059
v 0.340276 1.515086 0.159006
v 0.340276 0.037372 0.159006
v 0.340276 1.515086 -0.159006
v 0.340276 0.037372 -0.159006
v 0.327381 1.504113 0.149768
v 0.327381 0.048345 0.149768
v 0.327381 1.504113 -0.149768
v 0.327381 0.048345 -0.149768
vt 0.625186 0.169073
vt 0.914384 0.169073
vt 0.914384 0.830927
vt 0.625186 0.830927
vt 0.168906 0.169073
vt 0.458104 0.169073
vt 0.458104 0.830927
vt 0.168906 0.830926
vt 0.168906 0.998007
vt 0.168906 0.001992
vt 0.001825 0.169073
vt 0.001825 0.830926
vt 0.473893 0.814826
vt 0.609397 0.814826
vt 0.473893 0.185173
vt 0.477829 0.810151
vt 0.605461 0.810151
vt 0.609397 0.185173
vt 0.477829 0.189849
vt 0.605461 0.189849
vt 0.458104 0.001992
vt 0.458104 0.998008
vn 0.000000 0.000000 -1.000000
vn 0.000000 0.000000 -1.000000
vn 0.000000 0.000000 -1.000000
vn 0.000000 0.000000 -1.000000
vn -1.000000 0.000000 -0.000000
vn -1.000000 0.000000 -0.000000
vn -1.000000 0.000000 -0.000000
vn -1.000000 0.000000 -0.000000
vn -0.000000 0.000000 1.000000
vn -0.000000 0.000000 1.000000
vn -0.000000 0.000000 1.000000
vn -0.000000 0.000000 1.000000
vn 0.000000 1.000000 0.000000
vn 0.000000 1.000000 0.000000
vn 0.000000 1.000000 0.000000
vn 0.000000 1.000000 0.000000
vn 0.000000 -1.000000 0.000000
vn 0.000000 -1.000000 0.000000
vn 0.000000 -1.000000 0.000000
vn 0.000000 -1.000000 0.000000
vn 0.999849 0.012180 -0.012420
vn 0.999849 0.012180 0.012420
vn 0.948458 -0.216490 -0.231430
vn 0.948458 -0.216490 0.231430
vn 0.999849 -0.012180 -0.012420
vn 0.999849 0.012180 -0.012420
vn 0.948458 -0.216490 0.231430
vn 0.948458 0.216490 0.231430
vn 0.999849 -0.012180 0.012420
vn 0.999849 -0.012180 -0.012420
vn 0.948458 0.216490 0.231430
vn 0.948458 0.216490 -0.231430
vn 0.999849 0.012180 0.012420
vn 0.999849 -0.012180 0.012420
vn 0.948458 0.216490 -0.231430
vn 0.948458 -0.216490 -0.231430
vn 0.948458 -0.216490 0.231430
vn 0.948458 -0.216490 -0.231430
vn 0.907769 -0.419470 0.000000
vn 0.907769 -0.419470 0.000000
vn 0.948458 0.216490 0.231430
vn 0.948458 -0.216490 0.231430
vn 0.582367 0.000000 0.812926
vn 0.889486 0.000000 0.456963
vn 0.948458 0.216490 -0.231430
vn 0.948458 0.216490 0.231430
vn 0.648081 0.761571 0.000000
vn 0.907769 0.419470 0.000000
vn 0.948458 -0.216490 -0.231430
vn 0.948458 0.216490 -0.231430
vn 0.582367 0.000000 -0.812926
vn 0.582367 0.000000 -0.812926
vn 0.907769 0.419470 0.000000
vn 0.889486 0.000000 0.456963
vn 0.582367 0.000000 0.812926
vn 0.907769 -0.419470 0.000000
s off
g locker:obj1
usemtl initialShadingGroup
f 4/1/1 6/2/2 5/3/3 3/4/4
f 6/11/5 8/5/6 7/8/7 5/12/8
f 8/5/9 2/6/10 1/7/11 7/8/12
f 1/7/13 3/22/14 5/9/15 7/8/16
f 8/5/17 6/10/18 4/21/19 2/6/20
f 3/4/21 1/7/22 9/13/23 11/14/24
f 4/1/25 3/4/26 11/14/27 12/18/28
f 2/6/29 4/1/30 12/18/31 10/15/32
f 1/7/33 2/6/34 10/15/35 9/13/36
f 11/14/37 9/13/38 13/16/39 15/17/40
f 12/18/41 11/14/42 15/17/43 16/20/44
f 10/15/45 12/18/46 16/20/47 14/19/48
f 9/13/49 10/15/50 14/19/51 13/16/52
f 14/19/53 16/20/54 15/17/55 13/16/56
