# This file uses centimeters as units for non-parametric coordinates.

mtllib table1.mtl
g default
v -0.475895 0.620747 1.000000
v 0.352608 0.620747 1.000000
v 0.352608 0.620747 -1.000000
v -0.477200 0.620762 -1.000000
v -0.324589 0.551876 -1.000000
v -0.324589 0.551876 1.000000
v 0.200001 0.551876 1.000000
v 0.200001 0.551876 -1.000000
v 0.200001 0.551876 0.849998
v 0.352608 0.551876 0.849998
v -0.324589 0.551876 0.849998
v -0.477200 0.551876 0.849998
v -0.324589 0.551876 -0.849998
v -0.477200 0.551876 -0.849998
v 0.200001 0.551876 -0.849998
v 0.352608 0.551876 -0.849998
v -0.474590 -0.011625 1.000000
v 0.352608 -0.011625 1.000000
v 0.352608 -0.011625 -1.000000
v -0.477200 -0.011625 -1.000000
v -0.324589 -0.011625 -1.000000
v -0.324589 -0.011625 1.000000
v 0.200001 -0.011625 1.000000
v 0.200001 -0.011625 -1.000000
v 0.200001 -0.011625 0.849998
v 0.352608 -0.011625 0.849998
v -0.324589 -0.011625 0.849998
v -0.477200 -0.011625 0.849998
v -0.324589 -0.011625 -0.849998
v -0.477200 -0.011625 -0.849998
v 0.200001 -0.011625 -0.849998
v 0.352608 -0.011625 -0.849998
vt 0.853002 0.612566
vt 0.692960 0.612566
vt 0.692960 0.566803
vt 0.853002 0.566803
vt 0.646401 0.566803
vt 0.646401 0.048165
vt 0.692960 0.048165
vt 0.692960 0.002402
vt 0.853002 0.002402
vt 0.853002 0.048165
vt 0.899561 0.566803
vt 0.899561 0.048165
vt 0.194722 0.194920
vt 0.447886 0.194920
vt 0.447485 0.805083
vt 0.194724 0.805083
vt 0.287045 0.826093
vt 0.287046 0.998008
vt 0.241283 0.998008
vt 0.241282 0.826094
vt 0.194724 0.998008
vt 0.001796 0.805083
vt 0.001796 0.759324
vt 0.173717 0.759324
vt 0.001796 0.712765
vt 0.173717 0.712765
vt 0.468524 0.759335
vt 0.640442 0.759448
vt 0.640410 0.805210
vt 0.447089 0.998008
vt 0.401323 0.998008
vt 0.401323 0.826093
vt 0.355564 0.998008
vt 0.355564 0.826093
vt 0.468553 0.712775
vt 0.640474 0.712889
vt 0.355564 0.173910
vt 0.355562 0.001996
vt 0.401322 0.001994
vt 0.401322 0.173912
vt 0.447888 0.001992
vt 0.640812 0.195047
vt 0.640782 0.240810
vt 0.468867 0.240697
vt 0.640751 0.287369
vt 0.468837 0.287256
vt 0.173715 0.240679
vt 0.001797 0.240679
vt 0.001796 0.194920
vt 0.194719 0.001992
vt 0.241286 0.001994
vt 0.241286 0.173912
vt 0.287048 0.001996
vt 0.287048 0.173910
vt 0.173714 0.287238
vt 0.001799 0.287238
vn 0.000000 -1.000000 0.000000
vn 0.000000 -1.000000 0.000000
vn 0.000000 -1.000000 0.000000
vn 0.000000 -1.000000 0.000000
vn 0.000000 -1.000000 0.000000
vn 0.000000 -1.000000 0.000000
vn 0.000000 -1.000000 0.000000
vn 0.000000 -1.000000 0.000000
vn 0.000000 -1.000000 0.000000
vn 0.000000 -1.000000 0.000000
vn 0.000000 -1.000000 0.000000
vn 0.000000 -1.000000 0.000000
vn 0.000000 -1.000000 0.000000
vn 0.000000 -1.000000 0.000000
vn 0.000000 -1.000000 0.000000
vn 0.000000 -1.000000 0.000000
vn 0.000000 -1.000000 0.000000
vn 0.000000 -1.000000 0.000000
vn 0.000000 -1.000000 0.000000
vn 0.000000 -1.000000 0.000000
vn 0.000000 -1.000000 0.000000
vn 0.000000 -1.000000 0.000000
vn 0.000000 -1.000000 0.000000
vn 0.000000 -1.000000 0.000000
vn 0.000000 -1.000000 0.000000
vn 0.000000 -1.000000 0.000000
vn 0.000000 -1.000000 0.000000
vn 0.000000 -1.000000 0.000000
vn 0.000000 -1.000000 0.000000
vn 0.000000 -1.000000 0.000000
vn 0.000010 1.000000 0.000000
vn 0.000020 1.000000 0.000010
vn 0.000010 1.000000 0.000000
vn 0.000000 1.000000 0.000000
vn 0.000010 1.000000 0.000000
vn 0.000010 1.000000 0.000000
vn -1.000000 0.000000 0.000000
vn -1.000000 0.000000 0.000000
vn -1.000000 0.000000 0.000000
vn -1.000000 0.000000 0.000000
vn -1.000000 0.000000 0.000000
vn -1.000000 0.000000 0.000000
vn 0.000000 0.000000 1.000000
vn 0.000000 0.000000 1.000000
vn 0.000000 0.000000 1.000000
vn 0.000000 0.000000 1.000000
vn 0.000000 0.000000 1.000000
vn 0.000000 0.000000 1.000000
vn 1.000000 0.000000 0.000000
vn 1.000000 0.000000 0.000000
vn 1.000000 0.000000 0.000000
vn 1.000000 0.000000 0.000000
vn 1.000000 0.000000 0.000000
vn 1.000000 0.000000 0.000000
vn 0.000000 0.000000 -1.000000
vn 0.000000 0.000000 -1.000000
vn 0.000000 0.000000 -1.000000
vn 0.000000 0.000000 -1.000000
vn 0.000000 0.000000 -1.000000
vn 0.000000 0.000000 -1.000000
vn -0.999969 0.003860 0.006920
vn -0.999849 0.000000 0.017390
vn -0.999908 -0.001030 0.013510
vn -0.999957 0.007730 0.005150
vn -0.999969 0.003860 0.006920
vn -0.999908 -0.001030 0.013510
vn 0.000000 0.000000 1.000000
vn 0.000000 0.000000 1.000000
vn 0.000000 0.000000 1.000000
vn 0.000000 0.000000 1.000000
vn 0.000000 0.000000 1.000000
vn 0.000000 0.000000 1.000000
vn 1.000000 0.000000 0.000000
vn 1.000000 0.000000 0.000000
vn 1.000000 0.000000 0.000000
vn 1.000000 0.000000 0.000000
vn 1.000000 0.000000 0.000000
vn 1.000000 0.000000 0.000000
vn 0.000000 0.000000 -1.000000
vn 0.000000 0.000000 -1.000000
vn 0.000000 0.000000 -1.000000
vn 0.000000 0.000000 -1.000000
vn 0.000000 0.000000 -1.000000
vn 0.000000 0.000000 -1.000000
vn 1.000000 0.000000 0.000000
vn 1.000000 0.000000 0.000000
vn 1.000000 0.000000 0.000000
vn 1.000000 0.000000 0.000000
vn 1.000000 0.000000 0.000000
vn 1.000000 0.000000 0.000000
vn 0.000000 0.000000 -1.000000
vn 0.000000 0.000000 -1.000000
vn 0.000000 0.000000 -1.000000
vn 0.000000 0.000000 -1.000000
vn 0.000000 0.000000 -1.000000
vn 0.000000 0.000000 -1.000000
vn -0.999990 0.004380 0.000160
vn -1.000000 0.000000 0.000000
vn -1.000000 0.000000 0.000000
vn -1.000000 0.000000 0.000000
vn -0.999990 0.004380 0.000160
vn -1.000000 0.000000 0.000000
vn 0.000000 0.000000 1.000000
vn 0.000000 0.000000 1.000000
vn 0.000000 0.000000 1.000000
vn 0.000000 0.000000 1.000000
vn 0.000000 0.000000 1.000000
vn 0.000000 0.000000 1.000000
vn 1.000000 0.000000 0.000000
vn 1.000000 0.000000 0.000000
vn 1.000000 0.000000 0.000000
vn 1.000000 0.000000 0.000000
vn 1.000000 0.000000 0.000000
vn 1.000000 0.000000 0.000000
vn 0.000000 0.000000 -1.000000
vn 0.000000 0.000000 -1.000000
vn 0.000000 0.000000 -1.000000
vn 0.000000 0.000000 -1.000000
vn 0.000000 0.000000 -1.000000
vn 0.000000 0.000000 -1.000000
vn -1.000000 0.000000 0.000000
vn -1.000000 0.000000 0.000000
vn -1.000000 0.000000 0.000000
vn -1.000000 0.000000 0.000000
vn -1.000000 0.000000 0.000000
vn -1.000000 0.000000 0.000000
vn 0.000000 0.000000 1.000000
vn 0.000000 0.000000 1.000000
vn 0.000000 0.000000 1.000000
vn 0.000000 0.000000 1.000000
vn 0.000000 0.000000 1.000000
vn 0.000000 0.000000 1.000000
vn 0.000000 0.000000 -1.000000
vn 0.000000 0.000000 -1.000000
vn 0.000000 0.000000 -1.000000
vn 0.000000 0.000000 -1.000000
vn 0.000000 0.000000 -1.000000
vn 0.000000 0.000000 -1.000000
vn 1.000000 0.000000 0.000000
vn 1.000000 0.000000 0.000000
vn 1.000000 0.000000 0.000000
vn 1.000000 0.000000 0.000000
vn 1.000000 0.000000 0.000000
vn 1.000000 0.000000 0.000000
vn 0.000000 0.000000 1.000000
vn 0.000000 0.000000 1.000000
vn 0.000000 0.000000 1.000000
vn 0.000000 0.000000 1.000000
vn 0.000000 0.000000 1.000000
vn 0.000000 0.000000 1.000000
vn -0.999969 0.003860 0.006920
vn -0.999957 0.007730 0.005150
vn -0.999990 0.004380 0.000160
vn -1.000000 0.000000 0.000000
vn -0.999969 0.003860 0.006920
vn -0.999990 0.004380 0.000160
s off
g initialShadingGroup table3:obj1
f 7/1/1 6/2/2 11/3/3
f 9/4/4 7/1/5 11/3/6
f 11/3/7 12/5/8 14/6/9
f 13/7/10 11/3/11 14/6/12
f 5/8/13 8/9/14 15/10/15
f 13/7/16 5/8/17 15/10/18
f 9/4/19 11/3/20 13/7/21
f 15/10/22 9/4/23 13/7/24
f 10/11/25 9/4/26 15/10/27
f 16/12/28 10/11/29 15/10/30
f 3/13/31 4/14/32 1/15/33
f 2/16/34 3/13/35 1/15/36
f 9/17/37 25/18/38 23/19/39
f 7/20/40 9/17/41 23/19/42
f 7/20/43 23/19/44 18/21/45
f 2/16/46 7/20/47 18/21/48
f 2/16/49 18/22/50 26/23/51
f 10/24/52 2/16/53 26/23/54
f 10/24/55 26/23/56 25/25/57
f 9/26/58 10/24/59 25/25/60
f 12/27/61 28/28/62 17/29/63
f 1/15/64 12/27/65 17/29/66
f 1/15/67 17/30/68 22/31/69
f 6/32/70 1/15/71 22/31/72
f 6/32/73 22/31/74 27/33/75
f 11/34/76 6/32/77 27/33/78
f 11/35/79 27/36/80 28/28/81
f 12/27/82 11/35/83 28/28/84
f 13/37/85 29/38/86 21/39/87
f 5/40/88 13/37/89 21/39/90
f 5/40/91 21/39/92 20/41/93
f 4/14/94 5/40/95 20/41/96
f 4/14/97 20/42/98 30/43/99
f 14/44/100 4/14/101 30/43/102
f 14/44/103 30/43/104 29/45/105
f 13/46/106 14/44/107 29/45/108
f 3/13/109 16/47/110 32/48/111
f 19/49/112 3/13/113 32/48/114
f 3/13/115 19/50/116 24/51/117
f 8/52/118 3/13/119 24/51/120
f 8/52/121 24/51/122 31/53/123
f 15/54/124 8/52/125 31/53/126
f 15/55/127 31/56/128 32/48/129
f 16/47/130 15/55/131 32/48/132
f 3/13/133 8/52/134 5/40/135
f 4/14/136 3/13/137 5/40/138
f 16/47/139 3/13/140 2/16/141
f 10/24/142 16/47/143 2/16/144
f 7/20/145 2/16/146 1/15/147
f 6/32/148 7/20/149 1/15/150
f 12/27/151 1/15/152 4/14/153
f 14/44/154 12/27/155 4/14/156
