# Created by Metasequoia

v 0.000000 1.960520 1.000000
v 0.707107 1.960520 0.707107
v 1.000000 1.960520 -0.000000
v 0.707107 1.960520 -0.707107
v -0.000000 1.960520 -1.000000
v -0.707107 1.960520 -0.707107
v -1.000000 1.960520 0.000000
v -0.707107 1.960520 0.707107
v 0.000000 -0.039480 1.000000
v 0.707107 -0.039480 0.707107
v 1.000000 -0.039480 -0.000000
v 0.707107 -0.039480 -0.707107
v -0.000000 -0.039480 -1.000000
v -0.707107 -0.039480 -0.707107
v -1.000000 -0.039480 0.000000
v -0.707107 -0.039480 0.707107
v 0.000000 1.960520 0.800000
v 0.565685 1.960520 0.565685
v 0.800000 1.960520 -0.000000
v 0.565685 1.960520 -0.565685
v -0.000000 1.960520 -0.800000
v -0.565686 1.960520 -0.565685
v -0.800000 1.960520 0.000000
v -0.565686 1.960520 0.565685
v -0.000000 -0.039480 0.000000
v 0.004222 1.143988 0.800049
v 0.569907 1.143988 0.565734
v 0.804221 1.143988 0.000049
v 0.569907 1.143988 -0.565636
v 0.004222 1.143988 -0.799951
v -0.561464 1.143988 -0.565636
v -0.795779 1.143988 0.000049
v -0.561464 1.143988 0.565734
v 0.866972 3.199683 0.000000
v 0.808404 2.867527 0.120252
v 0.926829 2.846645 -0.000000
v 0.808404 2.867527 -0.120252
v 0.689979 2.888408 0.000000
v 0.526676 0.768814 0.120252
v 0.645101 0.747933 -0.000000
v 0.526676 0.768814 -0.120252
v 0.408251 0.789696 0.000000
v 0.505969 3.155160 -0.792242
v 0.529053 2.870912 -0.575702
v 0.590362 2.813975 -0.723758
v 0.432251 2.804814 -0.785708
v 0.370942 2.861752 -0.637652
v 0.407270 0.739534 -0.039179
v 0.468579 0.682598 -0.187234
v 0.310467 0.673437 -0.249184
v 0.249158 0.730374 -0.101129
v 0.566896 2.916024 0.643935
v 0.481996 2.572805 0.700602
v 0.640076 2.565553 0.638320
v 0.580041 2.596778 0.482304
v 0.421961 2.604031 0.544587
v 0.081378 0.399204 0.359372
v 0.239457 0.391952 0.297089
v 0.179422 0.423174 0.141072
v 0.021342 0.430428 0.203355
v -0.308823 2.882131 -0.769027
v -0.333139 2.586078 -0.569077
v -0.197421 2.557340 -0.667443
v -0.299826 2.525460 -0.799420
v -0.435544 2.554199 -0.701053
v -0.240873 0.425027 -0.160659
v -0.105156 0.396290 -0.259026
v -0.207561 0.364410 -0.391003
v -0.343279 0.393147 -0.292637
v -0.109894 2.436082 -0.510067
v -0.146503 2.173407 -0.259094
v 0.243370 2.351474 -0.547091
v 0.206761 2.088798 -0.296119
v -0.051554 1.490451 -0.376156
v -0.088163 1.227776 -0.125184
v -0.404818 1.575059 -0.339132
v -0.441427 1.312383 -0.088160
# 77 vertices

vt 0.00000 0.00000
vt 0.12500 0.00000
vt 0.12500 1.00000
vt 0.00000 1.00000
vt 0.25000 0.00000
vt 0.25000 1.00000
vt 0.37500 0.00000
vt 0.37500 1.00000
vt 0.50000 0.00000
vt 0.50000 1.00000
vt 0.62500 0.00000
vt 0.62500 1.00000
vt 0.75000 0.00000
vt 0.75000 1.00000
vt 0.87500 0.00000
vt 0.87500 1.00000
vt 1.00000 0.00000
vt 1.00000 1.00000
# 18 texture vertices

vn -0.00000 0.00000 1.00000
vn 0.70711 0.00000 0.70711
vn 1.00000 0.00000 -0.00000
vn 0.70711 0.00000 -0.70711
vn -0.00000 0.00000 -1.00000
vn -0.70711 0.00000 -0.70711
vn -1.00000 0.00000 -0.00000
vn -0.70711 0.00000 0.70711
vn 0.00000 1.00000 0.00000
vn 0.00000 -1.00000 0.00000
vn 0.00000 -0.00006 -1.00000
vn -0.70710 -0.00370 -0.70710
vn -0.99999 -0.00517 0.00000
vn -0.70710 -0.00361 0.70710
vn 0.00000 0.00006 1.00000
vn 0.70710 0.00370 0.70710
vn 0.99999 0.00517 -0.00000
vn 0.70710 0.00361 -0.70710
vn 0.71769 0.12168 0.68565
vn 0.71363 0.01386 0.70038
vn 0.71363 0.01386 -0.70038
vn -0.67335 0.22914 -0.70291
vn 0.70112 -0.09412 0.70681
vn 0.70112 -0.09412 -0.70681
vn -0.70112 0.09412 -0.70681
vn 0.91987 0.28221 0.27238
vn 0.93217 0.16243 0.32354
vn 0.36801 -0.17124 -0.91392
vn -0.91198 0.06940 -0.40433
vn 0.92851 0.03987 0.36916
vn 0.36589 -0.24679 -0.89734
vn -0.92851 -0.03987 -0.36916
vn 0.36832 0.06205 0.92762
vn 0.36265 -0.07362 0.92901
vn 0.93532 0.04466 -0.35097
vn -0.33537 0.31496 -0.88788
vn 0.35029 -0.20793 0.91327
vn 0.91996 -0.11051 -0.37612
vn -0.35029 0.20794 -0.91327
vn 0.58945 0.41832 0.69106
vn 0.60075 0.29824 0.74173
vn 0.79044 -0.00327 -0.61253
vn -0.59405 -0.05954 -0.80222
vn 0.60176 0.17305 0.77970
vn 0.79675 -0.07921 -0.59909
vn -0.60176 -0.17305 -0.77970
vn 0.23221 0.65482 0.71923
vn 0.19331 0.41890 0.88722
vn 0.90214 -0.35708 -0.24214
vn -0.19331 -0.41890 -0.88722
vn -0.23221 -0.65482 -0.71923
vn -0.67335 0.22914 0.70291
vn -0.70112 0.09412 0.70681
vn 0.71769 0.12168 -0.68565
vn -0.63279 0.35981 -0.68565
vn -0.63279 0.35981 0.68565
vn -0.35363 0.40653 0.84242
vn -0.36589 0.24679 0.89734
vn 0.36792 -0.09467 -0.92502
vn -0.88317 0.17774 -0.43407
vn -0.33122 0.55462 0.76334
vn -0.90120 0.19675 0.38616
vn -0.91996 0.11051 0.37612
vn 0.92735 0.19871 -0.31707
vn -0.31633 0.41810 -0.85154
vn -0.87534 0.28144 0.39316
vn -0.79390 0.24329 0.55725
vn -0.79675 0.07921 0.59909
vn 0.77939 0.07269 -0.62231
vn -0.57835 0.05477 -0.81395
vn -0.76828 0.40040 0.49942
vn 0.00000 1.00000 0.00000
vn -0.90214 0.35708 0.24214
vn -0.13791 -0.14721 -0.97944
vn 0.13791 0.14721 0.97944
# 75 normal vertices

g obj2
f 9/4/1 10/3/2 2/2/2 1/1/1
f 10/3/2 11/6/3 3/5/3 2/2/2
f 11/6/3 12/8/4 4/7/4 3/5/3
f 12/8/4 13/10/5 5/9/5 4/7/4
f 13/10/5 14/12/6 6/11/6 5/9/5
f 14/12/6 15/14/7 7/13/7 6/11/6
f 15/14/7 16/16/8 8/15/8 7/13/7
f 16/16/8 9/18/1 1/17/1 8/15/8
f 2/1/9 18/1/9 17/1/9 1/1/9
f 3/1/9 19/1/9 18/1/9 2/1/9
f 4/1/9 20/1/9 19/1/9 3/1/9
f 5/1/9 21/1/9 20/1/9 4/1/9
f 6/1/9 22/1/9 21/1/9 5/1/9
f 7/1/9 23/1/9 22/1/9 6/1/9
f 8/1/9 24/1/9 23/1/9 7/1/9
f 1/1/9 17/1/9 24/1/9 8/1/9
f 18/1/12 27/1/12 26/1/11 17/1/11
f 19/1/13 28/1/13 27/1/12 18/1/12
f 20/1/14 29/1/14 28/1/13 19/1/13
f 21/1/15 30/1/15 29/1/14 20/1/14
f 22/1/16 31/1/16 30/1/15 21/1/15
f 23/1/17 32/1/17 31/1/16 22/1/16
f 24/1/18 33/1/18 32/1/17 23/1/17
f 17/1/11 26/1/11 33/1/18 24/1/18
f 39/4/23 40/6/23 36/5/20 35/1/20
f 40/6/24 41/10/24 37/9/21 36/5/21
f 41/10/25 42/14/25 38/13/22 37/9/22
f 42/14/53 39/18/53 35/17/52 38/13/52
f 35/1/20 36/5/20 34/2/19
f 36/5/21 37/9/21 34/7/54
f 37/9/22 38/13/22 34/11/55
f 38/13/52 35/17/52 34/15/56
f 48/4/30 49/6/30 45/5/27 44/1/27
f 49/6/31 50/10/31 46/9/28 45/5/28
f 50/10/32 51/14/32 47/13/29 46/9/29
f 51/14/58 48/18/58 44/17/57 47/13/57
f 44/1/27 45/5/27 43/2/26
f 45/5/28 46/9/28 43/7/59
f 46/9/29 47/13/29 43/11/60
f 47/13/57 44/17/57 43/15/61
f 57/4/37 58/6/37 54/5/34 53/1/34
f 58/6/38 59/10/38 55/9/35 54/5/35
f 59/10/39 60/14/39 56/13/36 55/9/36
f 60/14/63 57/18/63 53/17/62 56/13/62
f 53/1/34 54/5/34 52/2/33
f 54/5/35 55/9/35 52/7/64
f 55/9/36 56/13/36 52/11/65
f 56/13/62 53/17/62 52/15/66
f 66/4/44 67/6/44 63/5/41 62/1/41
f 67/6/45 68/10/45 64/9/42 63/5/42
f 68/10/46 69/14/46 65/13/43 64/9/43
f 69/14/68 66/18/68 62/17/67 65/13/67
f 62/1/41 63/5/41 61/2/40
f 63/5/42 64/9/42 61/7/69
f 64/9/43 65/13/43 61/11/70
f 65/13/67 62/17/67 61/15/71
f 28/1/72 29/1/72 30/1/72 31/1/72 32/1/72 33/1/72 26/1/72 27/1/72
f 71/4/48 73/18/48 72/17/47 70/1/47
f 73/4/49 75/18/49 74/17/49 72/1/49
f 75/4/51 77/18/51 76/17/50 74/1/50
f 77/4/73 71/18/73 70/17/73 76/1/73
f 70/4/74 72/18/74 74/17/50 76/1/50
f 77/4/75 75/18/75 73/17/48 71/1/48
f 10/1/10 9/1/10 25/1/10
f 11/1/10 10/1/10 25/1/10
f 12/1/10 11/1/10 25/1/10
f 13/1/10 12/1/10 25/1/10
f 14/1/10 13/1/10 25/1/10
f 15/1/10 14/1/10 25/1/10
f 16/1/10 15/1/10 25/1/10
f 25/1/10 9/1/10 16/1/10
# 71 elements

