# This file uses centimeters as units for non-parametric coordinates.

mtllib shelf2.mtl
g default
v 0.301936 1.989552 0.428157
v 0.301936 1.989552 -0.428157
v 0.300227 1.990005 -0.488385
v 0.302460 1.932484 -0.488385
v 0.301936 1.932527 -0.428157
v 0.300227 1.989539 0.488385
v 0.300227 1.934294 0.488385
v 0.301936 1.935491 0.428157
v -0.059474 1.984737 0.488385
v -0.059474 1.928203 0.488385
v -0.059474 1.981999 -0.488385
v -0.059474 1.925508 -0.488385
v 0.307355 1.941058 0.481363
v 0.307355 1.982921 0.481364
v 0.308653 1.983009 0.435641
v 0.308653 1.941888 0.435641
v 0.311102 1.941701 -0.438123
v 0.311102 1.980444 -0.438123
v 0.309942 1.980709 -0.478995
v 0.309942 1.941714 -0.478996
v 0.301555 2.013934 0.428128
v 0.301459 2.013932 -0.428095
v 0.299684 2.014384 -0.488186
v 0.299901 2.013922 0.488381
v -0.059889 2.009118 0.488342
v -0.059911 2.006380 -0.488407
v 0.318008 1.992980 0.424090
v 0.318007 1.993020 -0.424099
v 0.316291 1.993379 -0.483660
v 0.316293 1.992953 0.483646
v 0.317627 2.011147 0.424063
v 0.317530 2.011185 -0.424039
v 0.315748 2.011542 -0.483464
v 0.315967 2.011119 0.483642
v 0.301936 1.724145 0.428157
v 0.301936 1.724145 -0.428157
v 0.300227 1.724599 -0.488385
v 0.302460 1.667077 -0.488385
v 0.301936 1.667120 -0.428157
v 0.300227 1.724133 0.488385
v 0.300227 1.668887 0.488385
v 0.301936 1.670085 0.428157
v -0.059474 1.719331 0.488385
v -0.059474 1.662797 0.488385
v -0.059474 1.716593 -0.488385
v -0.059474 1.660101 -0.488385
v 0.307355 1.675652 0.481363
v 0.307355 1.717515 0.481364
v 0.308653 1.717602 0.435642
v 0.308653 1.676482 0.435641
v 0.311102 1.676296 -0.438123
v 0.311102 1.715037 -0.438122
v 0.309942 1.715303 -0.478995
v 0.309942 1.676308 -0.478996
v 0.301555 1.748527 0.428128
v 0.301459 1.748526 -0.428095
v 0.299684 1.748977 -0.488186
v 0.299901 1.748515 0.488381
v -0.059889 1.743712 0.488342
v -0.059911 1.740974 -0.488407
v 0.318008 1.727574 0.424090
v 0.318007 1.727613 -0.424099
v 0.316291 1.727972 -0.483660
v 0.316293 1.727546 0.483646
v 0.317627 1.745740 0.424063
v 0.317530 1.745778 -0.424039
v 0.315748 1.746135 -0.483464
v 0.315967 1.745713 0.483642
v 0.301936 1.428705 0.428157
v 0.301936 1.428705 -0.428157
v 0.300227 1.429158 -0.488385
v 0.302460 1.371636 -0.488385
v 0.301936 1.371679 -0.428157
v 0.300227 1.428692 0.488385
v 0.300227 1.373446 0.488385
v 0.301936 1.374644 0.428157
v -0.059474 1.423889 0.488385
v -0.059474 1.367356 0.488385
v -0.059474 1.421151 -0.488385
v -0.059474 1.364661 -0.488385
v 0.307355 1.380211 0.481363
v 0.307355 1.422074 0.481364
v 0.308653 1.422161 0.435642
v 0.308653 1.381040 0.435642
v 0.311102 1.380854 -0.438123
v 0.311102 1.419595 -0.438123
v 0.309942 1.419861 -0.478995
v 0.309942 1.380867 -0.478995
v 0.301555 1.453085 0.428128
v 0.301459 1.453084 -0.428095
v 0.299684 1.453536 -0.488186
v 0.299901 1.453074 0.488381
v -0.059889 1.448270 0.488342
v -0.059911 1.445532 -0.488407
v 0.318008 1.432133 0.424091
v 0.318007 1.432172 -0.424099
v 0.316291 1.432531 -0.483660
v 0.316293 1.432105 0.483646
v 0.317627 1.450300 0.424063
v 0.317530 1.450337 -0.424039
v 0.315748 1.450694 -0.483464
v 0.315967 1.450272 0.483642
vt 0.500542 0.878304
vt 0.536307 0.878304
vt 0.536231 0.918072
vt 0.499820 0.918071
vt 0.494977 0.871792
vt 0.541999 0.871793
vt 0.541250 0.924178
vt 0.493804 0.924180
vt 0.492399 0.126993
vt 0.541999 0.126992
vt 0.500379 0.118324
vt 0.534076 0.118324
vt 0.500390 0.082774
vt 0.534307 0.082774
vt 0.541452 0.074607
vt 0.492517 0.074607
vt 0.564199 0.931330
vt 0.555977 0.868256
vt 0.571777 0.868231
vt 0.572870 0.923426
vt 0.555976 0.130521
vt 0.571776 0.130573
vt 0.564296 0.067459
vt 0.573020 0.075445
vt 0.500684 0.878446
vt 0.536450 0.878446
vt 0.536373 0.918215
vt 0.499962 0.918214
vt 0.495120 0.871935
vt 0.542141 0.871936
vt 0.541392 0.924321
vt 0.493946 0.924322
vt 0.492541 0.127136
vt 0.542141 0.127135
vt 0.500522 0.118467
vt 0.534218 0.118467
vt 0.500533 0.082916
vt 0.534449 0.082917
vt 0.541595 0.074750
vt 0.492659 0.074750
vt 0.564342 0.931472
vt 0.556119 0.868399
vt 0.571920 0.868374
vt 0.573012 0.923569
vt 0.556118 0.130664
vt 0.571918 0.130716
vt 0.564437 0.067602
vt 0.573161 0.075589
vt 0.500666 0.878493
vt 0.536432 0.878495
vt 0.536354 0.918263
vt 0.499943 0.918261
vt 0.495103 0.871982
vt 0.542124 0.871985
vt 0.541372 0.924370
vt 0.493927 0.924369
vt 0.492560 0.127182
vt 0.542159 0.127184
vt 0.500540 0.118514
vt 0.534236 0.118515
vt 0.500553 0.082963
vt 0.534469 0.082965
vt 0.541615 0.074798
vt 0.492680 0.074797
vt 0.564322 0.931522
vt 0.556103 0.868449
vt 0.571903 0.868425
vt 0.572993 0.923619
vt 0.556137 0.130714
vt 0.571936 0.130766
vt 0.564458 0.067652
vt 0.573182 0.075639
vt 0.180815 0.925264
vt 0.177874 0.075697
vt 0.587194 0.924172
vt 0.585757 0.871766
vt 0.900145 0.924102
vt 0.585754 0.127043
vt 0.900078 0.074549
vt 0.587272 0.074777
vt 0.180957 0.925407
vt 0.178016 0.075840
vt 0.587336 0.924315
vt 0.585899 0.871909
vt 0.900288 0.924245
vt 0.585895 0.127186
vt 0.900220 0.074691
vt 0.587414 0.074920
vt 0.180938 0.925439
vt 0.178037 0.075872
vt 0.587317 0.924366
vt 0.585883 0.871960
vt 0.900268 0.924311
vt 0.585914 0.127237
vt 0.900241 0.074758
vt 0.587434 0.074971
vt 0.587844 0.993428
vt 0.587191 0.945381
vt 0.900078 0.945311
vt 0.900746 0.994478
vt 0.901231 0.004216
vt 0.900174 0.053340
vt 0.587237 0.053568
vt 0.586373 0.003507
vt 0.587986 0.993571
vt 0.587334 0.945524
vt 0.900221 0.945454
vt 0.900889 0.994621
vt 0.901372 0.004359
vt 0.900315 0.053482
vt 0.587378 0.053712
vt 0.586514 0.003650
vt 0.587964 0.993622
vt 0.587314 0.945575
vt 0.900201 0.945520
vt 0.900866 0.994686
vt 0.901397 0.004425
vt 0.900337 0.053548
vt 0.587400 0.053763
vt 0.586538 0.003702
vn 0.379169 0.000000 0.925327
vn 0.259020 0.001470 0.965871
vn -0.000030 0.000490 1.000000
vn 0.000000 0.000000 1.000000
vn 0.000000 0.000000 -1.000000
vn 0.000110 0.001820 -0.999998
vn 0.268279 0.009250 -0.963297
vn 0.399351 0.008130 -0.916762
vn 0.929869 -0.276910 -0.242210
vn 0.931079 0.277350 -0.237000
vn 0.915417 0.277539 0.291519
vn 0.916926 -0.277919 0.286369
vn 0.916926 -0.277919 0.286369
vn 0.915417 0.277539 0.291519
vn 0.259020 0.001470 0.965871
vn 0.379169 0.000000 0.925327
vn 0.915417 0.277539 0.291519
vn 0.931079 0.277350 -0.237000
vn 0.918920 0.394290 0.011050
vn 0.688819 0.724649 0.020320
vn 0.931079 0.277350 -0.237000
vn 0.929869 -0.276910 -0.242210
vn 0.927403 -0.276131 -0.252341
vn 0.744251 0.000000 -0.667900
vn 0.929869 -0.276910 -0.242210
vn 0.916926 -0.277919 0.286369
vn 0.378970 -0.925380 -0.007310
vn 0.927403 -0.276131 -0.252341
vn 0.930057 -0.249489 -0.269719
vn 0.920787 0.277199 -0.274429
vn 0.930661 0.274030 0.242440
vn 0.935556 -0.256219 0.243079
vn 0.935556 -0.256219 0.243079
vn 0.930661 0.274030 0.242440
vn 0.931668 0.000000 0.363309
vn 0.933089 -0.255500 0.253110
vn 0.930661 0.274030 0.242440
vn 0.920787 0.277199 -0.274429
vn 0.697517 0.716416 -0.014770
vn 0.697517 0.716416 -0.014770
vn 0.920787 0.277199 -0.274429
vn 0.930057 -0.249489 -0.269719
vn 0.399351 0.008130 -0.916762
vn 0.268279 0.009250 -0.963297
vn 0.930057 -0.249489 -0.269719
vn 0.935556 -0.256219 0.243079
vn 0.933089 -0.255500 0.253110
vn 0.410719 -0.911757 -0.003010
vn 0.018390 -0.999798 -0.008140
vn 0.378970 -0.925380 -0.007310
vn 0.018390 -0.999798 -0.008140
vn 0.018390 -0.999798 -0.008140
vn 0.019560 -0.999807 0.002000
vn 0.019560 -0.999807 0.002000
vn 0.018390 -0.999798 -0.008140
vn 0.019560 -0.999807 0.002000
vn 0.410719 -0.911757 -0.003010
vn 0.019560 -0.999807 0.002000
vn 0.918920 0.394290 0.011050
vn 0.927403 -0.276131 -0.252341
vn 0.933089 -0.255500 0.253110
vn 0.931668 0.000000 0.363309
vn -0.000030 0.000490 1.000000
vn 0.259020 0.001470 0.965871
vn 0.142920 0.002820 0.989730
vn -0.000070 0.000970 1.000000
vn 0.080020 0.996790 0.002470
vn 0.078380 0.996923 0.000890
vn -0.015110 0.999885 -0.000790
vn 0.075710 0.997128 0.002090
vn -0.019560 0.999803 0.003380
vn -0.015110 0.999885 -0.000790
vn 0.078380 0.996923 0.000890
vn 0.268279 0.009250 -0.963297
vn 0.000110 0.001820 -0.999998
vn 0.000230 0.003640 -0.999993
vn 0.142260 0.010130 -0.989778
vn 0.075710 0.997128 0.002090
vn 0.074680 0.997195 0.004890
vn -0.019560 0.999803 0.003380
vn 0.078380 0.996923 0.000890
vn 0.080020 0.996790 0.002470
vn 0.172691 0.984963 0.005100
vn 0.171179 0.985237 0.002550
vn 0.209700 -0.977749 0.005670
vn 0.209741 -0.977753 0.002820
vn 0.209741 -0.977753 0.002820
vn 0.209700 -0.977749 0.005670
vn 0.142920 0.002820 0.989730
vn 0.259020 0.001470 0.965871
vn 0.282960 0.004620 0.959121
vn 0.282960 0.004620 0.959121
vn 0.999409 0.019460 0.028320
vn 0.999668 0.021540 0.014130
vn 0.999668 0.021540 0.014130
vn 0.999409 0.019460 0.028320
vn 0.075710 0.997128 0.002090
vn 0.078380 0.996923 0.000890
vn 0.171179 0.985237 0.002550
vn 0.170291 0.985394 0.000790
vn 0.209741 -0.977753 0.002820
vn 0.210641 -0.977543 -0.006350
vn 0.210641 -0.977543 -0.006350
vn 0.209741 -0.977753 0.002820
vn 0.999668 0.021540 0.014130
vn 0.999556 0.025940 -0.014630
vn 0.999556 0.025940 -0.014630
vn 0.999668 0.021540 0.014130
vn 0.074680 0.997195 0.004890
vn 0.075710 0.997128 0.002090
vn 0.170291 0.985394 0.000790
vn 0.170921 0.985283 0.001570
vn 0.268279 0.009250 -0.963297
vn 0.142260 0.010130 -0.989778
vn 0.281409 0.016420 -0.959447
vn 0.281409 0.016420 -0.959447
vn 0.210641 -0.977543 -0.006350
vn 0.211511 -0.977293 -0.012670
vn 0.211511 -0.977293 -0.012670
vn 0.210641 -0.977543 -0.006350
vn 0.999556 0.025940 -0.014630
vn 0.999174 0.028250 -0.029210
vn 0.999174 0.028250 -0.029210
vn 0.999556 0.025940 -0.014630
vn 0.379169 0.000000 0.925327
vn 0.259020 0.001470 0.965871
vn -0.000030 0.000490 1.000000
vn 0.000000 0.000000 1.000000
vn 0.000000 0.000000 -1.000000
vn 0.000110 0.001820 -0.999998
vn 0.268279 0.009250 -0.963297
vn 0.399351 0.008130 -0.916762
vn 0.929869 -0.276910 -0.242210
vn 0.931079 0.277350 -0.237000
vn 0.915417 0.277539 0.291519
vn 0.916926 -0.277919 0.286369
vn 0.916926 -0.277919 0.286369
vn 0.915417 0.277539 0.291519
vn 0.259020 0.001470 0.965871
vn 0.379169 0.000000 0.925327
vn 0.915417 0.277539 0.291519
vn 0.931079 0.277350 -0.237000
vn 0.918920 0.394290 0.011050
vn 0.688819 0.724649 0.020320
vn 0.931079 0.277350 -0.237000
vn 0.929869 -0.276910 -0.242210
vn 0.927403 -0.276131 -0.252341
vn 0.744251 0.000000 -0.667900
vn 0.929869 -0.276910 -0.242210
vn 0.916926 -0.277919 0.286369
vn 0.378970 -0.925380 -0.007310
vn 0.927403 -0.276131 -0.252341
vn 0.930057 -0.249489 -0.269719
vn 0.920787 0.277199 -0.274429
vn 0.930661 0.274030 0.242440
vn 0.935556 -0.256219 0.243079
vn 0.935556 -0.256219 0.243079
vn 0.930661 0.274030 0.242440
vn 0.931668 0.000000 0.363309
vn 0.933089 -0.255500 0.253110
vn 0.930661 0.274030 0.242440
vn 0.920787 0.277199 -0.274429
vn 0.697517 0.716416 -0.014770
vn 0.697517 0.716416 -0.014770
vn 0.920787 0.277199 -0.274429
vn 0.930057 -0.249489 -0.269719
vn 0.399351 0.008130 -0.916762
vn 0.268279 0.009250 -0.963297
vn 0.930057 -0.249489 -0.269719
vn 0.935556 -0.256219 0.243079
vn 0.933089 -0.255500 0.253110
vn 0.410719 -0.911757 -0.003010
vn 0.018390 -0.999798 -0.008140
vn 0.378970 -0.925380 -0.007310
vn 0.018390 -0.999798 -0.008140
vn 0.018390 -0.999798 -0.008140
vn 0.019560 -0.999807 0.002000
vn 0.019560 -0.999807 0.002000
vn 0.018390 -0.999798 -0.008140
vn 0.019560 -0.999807 0.002000
vn 0.410719 -0.911757 -0.003010
vn 0.019560 -0.999807 0.002000
vn 0.918920 0.394290 0.011050
vn 0.927403 -0.276131 -0.252341
vn 0.933089 -0.255500 0.253110
vn 0.931668 0.000000 0.363309
vn -0.000030 0.000490 1.000000
vn 0.259020 0.001470 0.965871
vn 0.142920 0.002820 0.989730
vn -0.000070 0.000970 1.000000
vn 0.080020 0.996790 0.002470
vn 0.078380 0.996923 0.000890
vn -0.015110 0.999885 -0.000790
vn 0.075710 0.997128 0.002090
vn -0.019560 0.999803 0.003380
vn -0.015110 0.999885 -0.000790
vn 0.078380 0.996923 0.000890
vn 0.268279 0.009250 -0.963297
vn 0.000110 0.001820 -0.999998
vn 0.000230 0.003640 -0.999993
vn 0.142260 0.010130 -0.989778
vn 0.075710 0.997128 0.002090
vn 0.074680 0.997195 0.004890
vn -0.019560 0.999803 0.003380
vn 0.078380 0.996923 0.000890
vn 0.080020 0.996790 0.002470
vn 0.172691 0.984963 0.005100
vn 0.171179 0.985237 0.002550
vn 0.209700 -0.977749 0.005670
vn 0.209741 -0.977753 0.002820
vn 0.209741 -0.977753 0.002820
vn 0.209700 -0.977749 0.005670
vn 0.142920 0.002820 0.989730
vn 0.259020 0.001470 0.965871
vn 0.282960 0.004620 0.959121
vn 0.282960 0.004620 0.959121
vn 0.999409 0.019460 0.028320
vn 0.999668 0.021540 0.014130
vn 0.999668 0.021540 0.014130
vn 0.999409 0.019460 0.028320
vn 0.075710 0.997128 0.002090
vn 0.078380 0.996923 0.000890
vn 0.171179 0.985237 0.002550
vn 0.170291 0.985394 0.000790
vn 0.209741 -0.977753 0.002820
vn 0.210641 -0.977543 -0.006350
vn 0.210641 -0.977543 -0.006350
vn 0.209741 -0.977753 0.002820
vn 0.999668 0.021540 0.014130
vn 0.999556 0.025940 -0.014630
vn 0.999556 0.025940 -0.014630
vn 0.999668 0.021540 0.014130
vn 0.074680 0.997195 0.004890
vn 0.075710 0.997128 0.002090
vn 0.170291 0.985394 0.000790
vn 0.170921 0.985283 0.001570
vn 0.268279 0.009250 -0.963297
vn 0.142260 0.010130 -0.989778
vn 0.281409 0.016420 -0.959447
vn 0.281409 0.016420 -0.959447
vn 0.210641 -0.977543 -0.006350
vn 0.211511 -0.977293 -0.012670
vn 0.211511 -0.977293 -0.012670
vn 0.210641 -0.977543 -0.006350
vn 0.999556 0.025940 -0.014630
vn 0.999174 0.028250 -0.029210
vn 0.999174 0.028250 -0.029210
vn 0.999556 0.025940 -0.014630
vn 0.379169 0.000000 0.925327
vn 0.259020 0.001470 0.965871
vn -0.000030 0.000490 1.000000
vn 0.000000 0.000000 1.000000
vn 0.000000 0.000000 -1.000000
vn 0.000110 0.001820 -0.999998
vn 0.268279 0.009250 -0.963297
vn 0.399351 0.008130 -0.916762
vn 0.929869 -0.276910 -0.242210
vn 0.931079 0.277350 -0.237000
vn 0.915417 0.277539 0.291519
vn 0.916926 -0.277919 0.286369
vn 0.916926 -0.277919 0.286369
vn 0.915417 0.277539 0.291519
vn 0.259020 0.001470 0.965871
vn 0.379169 0.000000 0.925327
vn 0.915417 0.277539 0.291519
vn 0.931079 0.277350 -0.237000
vn 0.918920 0.394290 0.011050
vn 0.688819 0.724649 0.020320
vn 0.931079 0.277350 -0.237000
vn 0.929869 -0.276910 -0.242210
vn 0.927403 -0.276131 -0.252341
vn 0.744251 0.000000 -0.667900
vn 0.929869 -0.276910 -0.242210
vn 0.916926 -0.277919 0.286369
vn 0.378970 -0.925380 -0.007310
vn 0.927403 -0.276131 -0.252341
vn 0.930057 -0.249489 -0.269719
vn 0.920787 0.277199 -0.274429
vn 0.930661 0.274030 0.242440
vn 0.935556 -0.256219 0.243079
vn 0.935556 -0.256219 0.243079
vn 0.930661 0.274030 0.242440
vn 0.931668 0.000000 0.363309
vn 0.933089 -0.255500 0.253110
vn 0.930661 0.274030 0.242440
vn 0.920787 0.277199 -0.274429
vn 0.697517 0.716416 -0.014770
vn 0.697517 0.716416 -0.014770
vn 0.920787 0.277199 -0.274429
vn 0.930057 -0.249489 -0.269719
vn 0.399351 0.008130 -0.916762
vn 0.268279 0.009250 -0.963297
vn 0.930057 -0.249489 -0.269719
vn 0.935556 -0.256219 0.243079
vn 0.933089 -0.255500 0.253110
vn 0.410719 -0.911757 -0.003010
vn 0.018390 -0.999798 -0.008140
vn 0.378970 -0.925380 -0.007310
vn 0.018390 -0.999798 -0.008140
vn 0.018390 -0.999798 -0.008140
vn 0.019560 -0.999807 0.002000
vn 0.019560 -0.999807 0.002000
vn 0.018390 -0.999798 -0.008140
vn 0.019560 -0.999807 0.002000
vn 0.410719 -0.911757 -0.003010
vn 0.019560 -0.999807 0.002000
vn 0.918920 0.394290 0.011050
vn 0.927403 -0.276131 -0.252341
vn 0.933089 -0.255500 0.253110
vn 0.931668 0.000000 0.363309
vn -0.000030 0.000490 1.000000
vn 0.259020 0.001470 0.965871
vn 0.142920 0.002820 0.989730
vn -0.000070 0.000970 1.000000
vn 0.080020 0.996790 0.002470
vn 0.078380 0.996923 0.000890
vn -0.015110 0.999885 -0.000790
vn 0.075710 0.997128 0.002090
vn -0.019560 0.999803 0.003380
vn -0.015110 0.999885 -0.000790
vn 0.078380 0.996923 0.000890
vn 0.268279 0.009250 -0.963297
vn 0.000110 0.001820 -0.999998
vn 0.000230 0.003640 -0.999993
vn 0.142260 0.010130 -0.989778
vn 0.075710 0.997128 0.002090
vn 0.074680 0.997195 0.004890
vn -0.019560 0.999803 0.003380
vn 0.078380 0.996923 0.000890
vn 0.080020 0.996790 0.002470
vn 0.172691 0.984963 0.005100
vn 0.171179 0.985237 0.002550
vn 0.209700 -0.977749 0.005670
vn 0.209741 -0.977753 0.002820
vn 0.209741 -0.977753 0.002820
vn 0.209700 -0.977749 0.005670
vn 0.142920 0.002820 0.989730
vn 0.259020 0.001470 0.965871
vn 0.282960 0.004620 0.959121
vn 0.282960 0.004620 0.959121
vn 0.999409 0.019460 0.028320
vn 0.999668 0.021540 0.014130
vn 0.999668 0.021540 0.014130
vn 0.999409 0.019460 0.028320
vn 0.075710 0.997128 0.002090
vn 0.078380 0.996923 0.000890
vn 0.171179 0.985237 0.002550
vn 0.170291 0.985394 0.000790
vn 0.209741 -0.977753 0.002820
vn 0.210641 -0.977543 -0.006350
vn 0.210641 -0.977543 -0.006350
vn 0.209741 -0.977753 0.002820
vn 0.999668 0.021540 0.014130
vn 0.999556 0.025940 -0.014630
vn 0.999556 0.025940 -0.014630
vn 0.999668 0.021540 0.014130
vn 0.074680 0.997195 0.004890
vn 0.075710 0.997128 0.002090
vn 0.170291 0.985394 0.000790
vn 0.170921 0.985283 0.001570
vn 0.268279 0.009250 -0.963297
vn 0.142260 0.010130 -0.989778
vn 0.281409 0.016420 -0.959447
vn 0.281409 0.016420 -0.959447
vn 0.210641 -0.977543 -0.006350
vn 0.211511 -0.977293 -0.012670
vn 0.211511 -0.977293 -0.012670
vn 0.210641 -0.977543 -0.006350
vn 0.999556 0.025940 -0.014630
vn 0.999174 0.028250 -0.029210
vn 0.999174 0.028250 -0.029210
vn 0.999556 0.025940 -0.014630
s off
g shelf2:obj2
usemtl initialShadingGroup
f 7/97/1 6/98/2 9/99/3 10/100/4
f 12/101/5 11/102/6 3/103/7 4/104/8
f 16/1/9 15/2/10 14/3/11 13/4/12
f 13/4/13 14/3/14 6/7/15 7/8/16
f 14/3/17 15/2/18 1/6/19 6/7/20
f 15/2/21 16/1/22 8/5/23 1/6/24
f 16/1/25 13/4/26 7/8/27 8/5/28
f 20/13/29 19/14/30 18/12/31 17/11/32
f 17/11/33 18/12/34 2/10/35 5/9/36
f 18/12/37 19/14/38 3/15/39 2/10/40
f 19/14/41 20/13/42 4/16/43 3/15/44
f 20/13/45 17/11/46 5/9/47 4/16/48
f 8/5/49 7/8/50 10/73/51
f 10/73/52 12/74/53 5/9/54 8/5/55
f 12/74/56 4/16/57 5/9/58
f 1/6/59 8/5/60 5/9/61 2/10/62
f 9/99/63 6/98/64 24/75/65 25/77/66
f 24/75/67 21/76/68 25/77/69
f 22/78/70 26/79/71 25/77/72 21/76/73
f 3/103/74 11/102/75 26/79/76 23/80/77
f 22/78/78 23/80/79 26/79/80
f 21/76/81 24/75/82 34/20/83 31/19/84
f 6/7/85 1/6/86 27/18/87 30/17/88
f 24/75/89 6/98/90 30/17/91 34/20/92
f 30/17/93 27/18/94 31/19/95 34/20/96
f 22/78/97 21/76/98 31/19/99 32/22/100
f 1/6/101 2/10/102 28/21/103 27/18/104
f 27/18/105 28/21/106 32/22/107 31/19/108
f 23/80/109 22/78/110 32/22/111 33/24/112
f 3/103/113 23/80/114 33/24/115 29/23/116
f 2/10/117 3/15/118 29/23/119 28/21/120
f 28/21/121 29/23/122 33/24/123 32/22/124
f 41/105/125 40/106/126 43/107/127 44/108/128
f 46/109/129 45/110/130 37/111/131 38/112/132
f 50/25/133 49/26/134 48/27/135 47/28/136
f 47/28/137 48/27/138 40/31/139 41/32/140
f 48/27/141 49/26/142 35/30/143 40/31/144
f 49/26/145 50/25/146 42/29/147 35/30/148
f 50/25/149 47/28/150 41/32/151 42/29/152
f 54/37/153 53/38/154 52/36/155 51/35/156
f 51/35/157 52/36/158 36/34/159 39/33/160
f 52/36/161 53/38/162 37/39/163 36/34/164
f 53/38/165 54/37/166 38/40/167 37/39/168
f 54/37/169 51/35/170 39/33/171 38/40/172
f 42/29/173 41/32/174 44/81/175
f 44/81/176 46/82/177 39/33/178 42/29/179
f 46/82/180 38/40/181 39/33/182
f 35/30/183 42/29/184 39/33/185 36/34/186
f 43/107/187 40/106/188 58/83/189 59/85/190
f 58/83/191 55/84/192 59/85/193
f 56/86/194 60/87/195 59/85/196 55/84/197
f 37/111/198 45/110/199 60/87/200 57/88/201
f 56/86/202 57/88/203 60/87/204
f 55/84/205 58/83/206 68/44/207 65/43/208
f 40/31/209 35/30/210 61/42/211 64/41/212
f 58/83/213 40/106/214 64/41/215 68/44/216
f 64/41/217 61/42/218 65/43/219 68/44/220
f 56/86/221 55/84/222 65/43/223 66/46/224
f 35/30/225 36/34/226 62/45/227 61/42/228
f 61/42/229 62/45/230 66/46/231 65/43/232
f 57/88/233 56/86/234 66/46/235 67/48/236
f 37/111/237 57/88/238 67/48/239 63/47/240
f 36/34/241 37/39/242 63/47/243 62/45/244
f 62/45/245 63/47/246 67/48/247 66/46/248
f 75/113/249 74/114/250 77/115/251 78/116/252
f 80/117/253 79/118/254 71/119/255 72/120/256
f 84/49/257 83/50/258 82/51/259 81/52/260
f 81/52/261 82/51/262 74/55/263 75/56/264
f 82/51/265 83/50/266 69/54/267 74/55/268
f 83/50/269 84/49/270 76/53/271 69/54/272
f 84/49/273 81/52/274 75/56/275 76/53/276
f 88/61/277 87/62/278 86/60/279 85/59/280
f 85/59/281 86/60/282 70/58/283 73/57/284
f 86/60/285 87/62/286 71/63/287 70/58/288
f 87/62/289 88/61/290 72/64/291 71/63/292
f 88/61/293 85/59/294 73/57/295 72/64/296
f 76/53/297 75/56/298 78/89/299
f 78/89/300 80/90/301 73/57/302 76/53/303
f 80/90/304 72/64/305 73/57/306
f 69/54/307 76/53/308 73/57/309 70/58/310
f 77/115/311 74/114/312 92/91/313 93/93/314
f 92/91/315 89/92/316 93/93/317
f 90/94/318 94/95/319 93/93/320 89/92/321
f 71/119/322 79/118/323 94/95/324 91/96/325
f 90/94/326 91/96/327 94/95/328
f 89/92/329 92/91/330 102/68/331 99/67/332
f 74/55/333 69/54/334 95/66/335 98/65/336
f 92/91/337 74/114/338 98/65/339 102/68/340
f 98/65/341 95/66/342 99/67/343 102/68/344
f 90/94/345 89/92/346 99/67/347 100/70/348
f 69/54/349 70/58/350 96/69/351 95/66/352
f 95/66/353 96/69/354 100/70/355 99/67/356
f 91/96/357 90/94/358 100/70/359 101/72/360
f 71/119/361 91/96/362 101/72/363 97/71/364
f 70/58/365 71/63/366 97/71/367 96/69/368
f 96/69/369 97/71/370 101/72/371 100/70/372
