# This file uses centimeters as units for non-parametric coordinates.

mtllib table2.mtl
g default
v 1.086151 0.620747 0.986633
v 1.086151 0.620762 0.156828
v 1.086151 0.551876 0.309437
v 1.086151 0.551876 0.834023
v 0.936150 0.551876 0.309437
v 0.936150 0.551876 0.156828
v 0.936150 0.551876 0.834023
v 0.936150 0.551876 0.986633
v 1.086151 -0.011625 0.986633
v 1.086151 -0.011625 0.156828
v 1.086151 -0.011625 0.309437
v 1.086151 -0.011625 0.834023
v 0.936150 -0.011625 0.309437
v 0.936150 -0.011625 0.156828
v 0.936150 -0.011625 0.834023
v 0.936150 -0.011625 0.986633
v -0.476227 0.620747 1.000000
v 0.352608 0.620747 -1.000000
v -0.477200 0.620762 -1.000000
v -0.324589 0.551876 -1.000000
v -0.323042 0.551876 1.000000
v 0.200001 0.551876 -1.000000
v 0.353065 0.551876 0.167105
v -0.324589 0.551876 0.849998
v -0.477200 0.551876 0.849998
v -0.324589 0.551876 -0.849998
v -0.477200 0.551876 -0.849998
v 0.200001 0.551876 -0.849998
v 0.352608 0.551876 -0.849998
v -0.474590 -0.011625 1.000000
v 0.352608 -0.011625 -1.000000
v -0.477200 -0.011625 -1.000000
v -0.324589 -0.011625 -1.000000
v -0.324589 -0.011625 1.000000
v 0.200001 -0.011625 -1.000000
v -0.324589 -0.011625 0.849998
v -0.477200 -0.011625 0.849998
v -0.324589 -0.011625 -0.849998
v -0.477200 -0.011625 -0.849998
v 0.200001 -0.011625 -0.849998
v 0.352608 -0.011625 -0.849998
v 0.352608 0.620747 0.166061
vt 0.573193 0.668510
vt 0.535448 0.668510
vt 0.535448 0.536507
vt 0.573193 0.536507
vt 0.572244 0.333628
vt 0.572274 0.295882
vt 0.714066 0.296867
vt 0.713572 0.334610
vt 0.554972 0.370234
vt 0.713357 0.373010
vt 0.517690 0.387275
vt 0.552300 0.532201
vt 0.514575 0.530842
vt 0.479277 0.387344
vt 0.476201 0.529107
vt 0.554126 0.164281
vt 0.516519 0.146648
vt 0.517663 0.004857
vt 0.555407 0.005161
vt 0.571478 0.202673
vt 0.713259 0.164207
vt 0.713278 0.202603
vt 0.571496 0.240419
vt 0.713298 0.240348
vt 0.478118 0.146338
vt 0.479263 0.004547
vt 0.890438 0.960263
vt 0.890438 0.532487
vt 0.928840 0.532487
vt 0.928840 0.960263
vt 0.890438 0.998008
vt 0.758434 0.998008
vt 0.758434 0.960263
vt 0.160985 0.161109
vt 0.143654 0.198854
vt 0.001855 0.198854
vt 0.001857 0.161109
vt 0.199677 0.144091
vt 0.162684 0.001992
vt 0.200431 0.002297
vt 0.237418 0.144291
vt 0.238172 0.002497
vt 0.143656 0.237256
vt 0.001854 0.237256
vt 0.199398 0.681684
vt 0.237140 0.681667
vt 0.237210 0.823463
vt 0.199468 0.823483
vt 0.160983 0.664375
vt 0.161060 0.823503
vt 0.143653 0.626630
vt 0.001857 0.664375
vt 0.001857 0.626630
vt 0.143653 0.588227
vt 0.001857 0.588228
vt 0.369795 0.664272
vt 0.387105 0.626522
vt 0.528898 0.626452
vt 0.528915 0.664194
vt 0.331397 0.681619
vt 0.369875 0.823401
vt 0.331467 0.823418
vt 0.293652 0.681639
vt 0.293721 0.823435
vt 0.387085 0.588119
vt 0.528881 0.588050
vt 0.386638 0.386362
vt 0.368872 0.370465
vt 0.719918 0.704327
vt 0.720032 0.960263
vt 0.573193 0.706912
vt 0.573193 0.498104
vt 0.890048 0.494742
vn 0.000000 -1.000000 0.000000
vn 0.000000 -1.000000 0.000000
vn 0.000000 -1.000000 0.000000
vn 0.000000 -1.000000 0.000000
vn 0.000000 0.000000 1.000000
vn 0.000000 0.000000 1.000000
vn 0.000000 0.000000 1.000000
vn 0.000000 0.000000 1.000000
vn 1.000000 0.000000 0.000000
vn 1.000000 0.000000 0.000000
vn 1.000000 0.000000 0.000000
vn 1.000000 0.000000 0.000000
vn -0.007550 0.003040 -0.999967
vn -0.007550 0.003040 -0.999967
vn 0.000000 0.000000 -1.000000
vn 0.000000 0.000000 -1.000000
vn -1.000000 0.000000 0.000000
vn -1.000000 0.000000 0.000000
vn -1.000000 0.000000 0.000000
vn -1.000000 0.000000 0.000000
vn 0.004790 -0.001020 0.999988
vn 0.004790 -0.001020 0.999988
vn 0.000000 0.000000 1.000000
vn 0.000000 0.000000 1.000000
vn 1.000000 0.000000 0.000000
vn 1.000000 0.000000 0.000000
vn 1.000000 0.000000 0.000000
vn 1.000000 0.000000 0.000000
vn 0.000000 0.000000 -1.000000
vn 0.000000 0.000000 -1.000000
vn 0.000000 0.000000 -1.000000
vn 0.000000 0.000000 -1.000000
vn -1.000000 0.000000 0.000000
vn -1.000000 0.000000 0.000000
vn -1.000000 0.000000 0.000000
vn -1.000000 0.000000 0.000000
vn 1.000000 0.000000 0.000000
vn 1.000000 0.000000 0.000000
vn 1.000000 0.000000 0.000000
vn 1.000000 0.000000 0.000000
vn 0.000000 -1.000000 0.000000
vn 0.000000 -1.000000 0.000000
vn 0.000000 -1.000000 0.000000
vn 0.000000 -1.000000 0.000000
vn 0.000000 -1.000000 0.000000
vn 0.000000 -1.000000 0.000000
vn 0.000000 -1.000000 0.000000
vn 0.000000 -1.000000 0.000000
vn -0.999976 0.002610 0.006380
vn -0.999976 0.002610 0.006380
vn -0.999921 -0.001290 0.012530
vn -0.999921 -0.001290 0.012530
vn 0.004790 -0.001020 0.999988
vn 0.004790 -0.001020 0.999988
vn 0.000000 0.000000 1.000000
vn 0.000000 0.000000 1.000000
vn 0.999986 -0.001370 -0.005160
vn 0.999986 -0.001370 -0.005160
vn 0.999986 -0.001370 -0.005160
vn 0.999986 -0.001370 -0.005160
vn 0.000000 0.000000 -1.000000
vn 0.000000 0.000000 -1.000000
vn 0.000000 0.000000 -1.000000
vn 0.000000 0.000000 -1.000000
vn 1.000000 0.000000 0.000000
vn 1.000000 0.000000 0.000000
vn 1.000000 0.000000 0.000000
vn 1.000000 0.000000 0.000000
vn 0.000000 0.000000 -1.000000
vn 0.000000 0.000000 -1.000000
vn 0.000000 0.000000 -1.000000
vn 0.000000 0.000000 -1.000000
vn -0.999995 0.003260 0.000120
vn -0.999995 0.003260 0.000120
vn -1.000000 0.000000 0.000000
vn -1.000000 0.000000 0.000000
vn 0.000000 0.000000 1.000000
vn 0.000000 0.000000 1.000000
vn 0.000000 0.000000 1.000000
vn 0.000000 0.000000 1.000000
vn 0.999999 0.001660 -0.000110
vn 0.999999 0.001660 -0.000110
vn 1.000000 0.000000 0.000000
vn 1.000000 0.000000 0.000000
vn 0.000000 0.000000 -1.000000
vn 0.000000 0.000000 -1.000000
vn 0.000000 0.000000 -1.000000
vn 0.000000 0.000000 -1.000000
vn -1.000000 0.000000 0.000000
vn -1.000000 0.000000 0.000000
vn -1.000000 0.000000 0.000000
vn -1.000000 0.000000 0.000000
vn 0.000000 0.000000 1.000000
vn 0.000000 0.000000 1.000000
vn 0.000000 0.000000 1.000000
vn 0.000000 0.000000 1.000000
vn 0.000000 0.000000 -1.000000
vn 0.000000 0.000000 -1.000000
vn 0.000000 0.000000 -1.000000
vn 0.000000 0.000000 -1.000000
vn -0.999995 0.003260 0.000120
vn -0.999976 0.002610 0.006380
vn -0.999976 0.002610 0.006380
vn -0.999995 0.003260 0.000120
vn 0.999995 0.003320 -0.000230
vn 0.999999 0.001660 -0.000110
vn 0.999999 0.001660 -0.000110
vn 0.999995 0.003320 -0.000230
vn 0.004790 -0.001020 0.999988
vn 0.004790 -0.001020 0.999988
vn 0.004790 -0.001020 0.999988
vn 0.004790 -0.001020 0.999988
vn 0.000000 1.000000 0.000010
vn -0.000010 1.000000 0.000010
vn -0.000010 1.000000 0.000010
vn 0.000000 1.000000 0.000010
vn 0.000000 -1.000000 0.000000
vn 0.000000 -1.000000 0.000000
vn 0.000000 -1.000000 0.000000
vn 0.000000 -1.000000 0.000000
vn 0.000000 -1.000000 0.000000
vn 0.000000 -1.000000 0.000000
vn 0.000000 -1.000000 0.000000
vn 0.000000 -1.000000 0.000000
vn 0.000000 -1.000000 0.000000
vn 0.000000 -1.000000 0.000000
vn 0.000000 -1.000000 0.000000
vn 0.000000 -1.000000 0.000000
vn 0.000000 -1.000000 0.000000
vn 0.000000 -1.000000 0.000000
vn 0.000000 -1.000000 0.000000
vn -0.007550 0.003040 -0.999967
vn -0.007550 0.003040 -0.999967
vn -0.015100 0.006080 -0.999868
vn -0.015100 0.006080 -0.999868
vn 0.000000 1.000000 0.000010
vn 0.000010 1.000000 0.000000
vn 0.000010 1.000000 0.000000
vn 0.000000 1.000000 0.000010
vn 0.000000 -1.000000 0.000000
vn 0.000000 -1.000000 0.000000
vn 0.000000 -1.000000 0.000000
vn 0.000000 -1.000000 0.000000
vn 0.000000 -1.000000 0.000000
vn 0.000000 -1.000000 0.000000
vn 0.000000 -1.000000 0.000000
s off
g initialShadingGroup table2:obj2
f 5/1/1 3/2/2 4/3/3 7/4/4
f 3/5/5 5/6/6 13/7/7 11/8/8
f 2/9/9 3/5/10 11/8/11 10/10/12
f 6/11/13 2/9/14 10/12/15 14/13/16
f 5/14/17 6/11/18 14/13/19 13/15/20
f 1/16/21 8/17/22 16/18/23 9/19/24
f 4/20/25 1/16/26 9/21/27 12/22/28
f 7/23/29 4/20/30 12/22/31 15/24/32
f 8/17/33 7/25/34 15/26/35 16/18/36
f 2/9/37 1/16/38 4/20/39 3/5/40
f 26/27/41 24/28/42 25/29/43 27/30/44
f 26/27/45 20/31/46 22/32/47 28/33/48
f 17/34/49 25/35/50 37/36/51 30/37/52
f 21/38/53 17/34/54 30/39/55 34/40/56
f 24/41/57 21/38/58 34/40/59 36/42/60
f 25/35/61 24/43/62 36/44/63 37/36/64
f 20/45/65 26/46/66 38/47/67 33/48/68
f 19/49/69 20/45/70 33/48/71 32/50/72
f 27/51/73 19/49/74 32/52/75 39/53/76
f 26/54/77 27/51/78 39/53/79 38/55/80
f 18/56/81 29/57/82 41/58/83 31/59/84
f 22/60/85 18/56/86 31/61/87 35/62/88
f 28/63/89 22/60/90 35/62/91 40/64/92
f 29/57/93 28/65/94 40/66/95 41/58/96
f 19/49/97 18/56/98 22/60/99 20/45/100
f 27/51/101 25/35/102 17/34/103 19/49/104
f 23/67/105 29/57/106 18/56/107 42/68/108
f 8/17/109 1/16/110 17/34/111 21/38/112
f 17/34/113 1/16/114 2/9/115 42/68/116
f 23/69/117 24/28/118 26/27/119
f 26/27/120 28/33/121 23/69/122
f 28/33/123 29/70/124 23/69/125
f 6/71/126 5/1/127 23/69/128
f 7/4/129 8/72/130 21/73/131
f 2/9/132 6/11/133 23/67/134 42/68/135
f 42/68/136 18/56/137 19/49/138 17/34/139
f 24/28/140 23/69/141 5/1/142 7/4/143
f 7/4/144 21/73/145 24/28/146
