# This file uses centimeters as units for non-parametric coordinates.

mtllib carpet.mtl
g default
v -0.784421 0.016681 0.784421
v 0.784421 0.016681 0.784421
v -0.784421 0.016681 -0.784421
v 0.784421 0.016681 -0.784421
v -0.784421 0.016681 0.784421
v -0.784421 0.016681 -0.784421
v -0.784421 0.016681 -0.784421
v 0.784421 0.016681 -0.784421
v -2.404994 0.016681 0.784421
v -2.404994 0.016681 -0.784421
v 2.461900 0.016681 0.784421
v 2.461900 0.016681 -0.784421
v -4.021424 0.016681 0.784421
v -4.021424 0.016681 -0.784421
vt 1.000000 1.000000
vt 0.000000 1.000000
vt 1.000000 0.000000
vt 0.000000 0.000000
vt 0.000000 0.000000
vt 1.000000 0.000000
vt 1.000000 1.000000
vt 0.000000 1.000000
vt 0.000000 0.000000
vt 1.000000 0.000000
vt 1.000000 1.000000
vt 0.000000 1.000000
vt 0.000000 1.000000
vt 0.000000 0.000000
vt 1.000000 0.000000
vt 1.000000 1.000000
vt 1.000000 0.000000
vt 1.000000 1.000000
vt 0.000000 1.000000
vt 0.000000 0.000000
vt 0.000000 1.000000
vt 0.000000 0.000000
vt 1.000000 0.000000
vt 1.000000 1.000000
vn 0.000000 1.000000 0.000000
vn 0.000000 1.000000 0.000000
vn 0.000000 1.000000 0.000000
vn 0.000000 1.000000 0.000000
vn 0.000000 0.000000 0.000000
vn 0.000000 0.000000 0.000000
vn 0.000000 0.000000 0.000000
vn 0.000000 0.000000 0.000000
vn 0.000000 0.000000 0.000000
vn 0.000000 0.000000 0.000000
vn 0.000000 0.000000 0.000000
vn 0.000000 0.000000 0.000000
vn 0.000000 1.000000 0.000000
vn 0.000000 1.000000 0.000000
vn 0.000000 1.000000 0.000000
vn 0.000000 1.000000 0.000000
vn 0.000000 1.000000 0.000000
vn 0.000000 1.000000 0.000000
vn 0.000000 1.000000 0.000000
vn 0.000000 1.000000 0.000000
s 1
g carpet
usemtl lambert3SG
f 1/1/1 2/2/2 4/4/3 3/3/4
s off
f 1/5/5 3/6/6 6/7/7 5/8/8
f 3/9/9 4/10/10 8/11/11 7/12/12
s 2
f 1/13/13 3/14/14 10/15/15 9/16/16
s 1
f 4/17/3 2/18/2 11/19/17 12/20/18
s 2
f 9/21/16 10/22/15 14/23/19 13/24/20
