# This file uses centimeters as units for non-parametric coordinates.

mtllib paint rect.mtl
g default1
v -1.663983 1.883896 0.213068
v 1.645819 1.883896 0.213068
v -1.663983 6.173698 0.213068
v 1.645819 6.173698 0.213068
v -1.663983 6.173698 -0.213068
v 1.645819 6.173698 -0.213068
v -1.663983 1.883896 -0.213068
v 1.645819 1.883896 -0.213068
v -1.356763 2.229027 0.203308
v -1.356763 5.828567 0.203308
v 1.338596 5.828567 0.203308
v 1.338596 2.229027 0.203308
v -1.277230 2.309702 0.088928
v -1.277230 5.747892 0.088928
v 1.259065 5.747892 0.088928
v 1.259065 2.309702 0.088928
vt 0.720769 0.920805
vt 0.790616 0.998008
vt 0.001578 0.998008
vt 0.071424 0.920805
vt 0.790616 0.001992
vt 0.720769 0.079195
vt 0.071424 0.079195
vt 0.001578 0.001992
vt 0.131698 0.146906
vt 0.131698 0.853094
vt 0.147301 0.162733
vt 0.147301 0.837266
vt 0.660496 0.853094
vt 0.660496 0.146906
vt 0.644893 0.162733
vt 0.644893 0.837266
vn 0.000000 1.000000 0.000000
vn 0.000000 1.000000 0.000000
vn 0.000000 1.000000 0.000000
vn 0.000000 1.000000 0.000000
vn -0.000000 -1.000000 0.000000
vn -0.000000 -1.000000 0.000000
vn -0.000000 -1.000000 0.000000
vn -0.000000 -1.000000 0.000000
vn -1.000000 0.000000 0.000000
vn -1.000000 0.000000 0.000000
vn -1.000000 0.000000 0.000000
vn -1.000000 0.000000 0.000000
vn 1.000000 -0.000000 0.000000
vn 1.000000 -0.000000 0.000000
vn 1.000000 -0.000000 0.000000
vn 1.000000 -0.000000 0.000000
vn 0.253220 0.251040 0.934269
vn 0.253220 -0.251040 0.934269
vn 0.015880 -0.014140 0.999774
vn 0.015880 0.014140 0.999774
vn 0.253220 -0.251040 0.934269
vn -0.253219 -0.251049 0.934267
vn -0.015880 -0.014140 0.999774
vn 0.015880 -0.014140 0.999774
vn -0.253219 -0.251049 0.934267
vn -0.253219 0.251049 0.934267
vn -0.015880 0.014140 0.999774
vn -0.015880 -0.014140 0.999774
vn -0.253219 0.251049 0.934267
vn 0.253220 0.251040 0.934269
vn 0.015880 0.014140 0.999774
vn -0.015880 0.014140 0.999774
vn -0.336519 0.334939 0.880097
vn -0.000000 -0.460230 0.887800
vn 0.336510 -0.334940 0.880100
vn 0.336510 0.334940 0.880100
vn 0.336510 0.334940 0.880100
vn 0.336510 -0.334940 0.880100
vn 0.253220 -0.251040 0.934269
vn 0.253220 0.251040 0.934269
vn 0.336510 -0.334940 0.880100
vn -0.000000 -0.460230 0.887800
vn -0.253219 -0.251049 0.934267
vn 0.253220 -0.251040 0.934269
vn -0.821032 0.000000 0.570882
vn -0.336519 0.334939 0.880097
vn -0.253219 0.251049 0.934267
vn -0.253219 -0.251049 0.934267
vn -0.336519 0.334939 0.880097
vn 0.336510 0.334940 0.880100
vn 0.253220 0.251040 0.934269
vn -0.253219 0.251049 0.934267
s off
g initialShadingGroup initialShadingGroup1 obj1 polySurface1
f 4/1/1 6/2/2 5/3/3 3/4/4
f 8/5/5 2/6/6 1/7/7 7/8/8
f 1/7/9 3/4/10 5/3/11 7/8/12
f 8/5/13 6/2/14 4/1/15 2/6/16
f 9/9/17 10/10/18 3/4/19 1/7/20
f 10/10/21 11/13/22 4/1/23 3/4/24
f 11/13/25 12/14/26 2/6/27 4/1/28
f 12/14/29 9/9/30 1/7/31 2/6/32
f 16/15/33 15/16/34 14/12/35 13/11/36
f 13/11/37 14/12/38 10/10/39 9/9/40
f 14/12/41 15/16/42 11/13/43 10/10/44
f 15/16/45 16/15/46 12/14/47 11/13/48
f 16/15/49 13/11/50 9/9/51 12/14/52
