# Created by Metasequoia

v -0.016640 0.024227 -0.002131
v 0.016458 0.024227 -0.002131
v -0.016640 0.056349 -0.002131
v 0.016458 0.056349 -0.002131
v -0.016640 0.056349 0.002131
v 0.016458 0.056349 0.002131
v -0.016640 0.024227 0.002131
v 0.016458 0.024227 0.002131
v -0.013568 0.026811 -0.002033
v -0.013568 0.053765 -0.002033
v 0.013386 0.053765 -0.002033
v 0.013386 0.026811 -0.002033
v -0.012772 0.027415 -0.000889
v -0.012772 0.053161 -0.000889
v 0.012591 0.053161 -0.000889
v 0.012591 0.027415 -0.000889
# 16 vertices

vt 0.72077 0.92080
vt 0.79062 0.99801
vt 0.00158 0.99801
vt 0.07142 0.92080
vt 0.79062 0.00199
vt 0.72077 0.07920
vt 0.07142 0.07920
vt 0.00158 0.00199
vt 0.13170 0.14691
vt 0.13170 0.85309
vt 0.66050 0.85309
vt 0.66050 0.14691
vt 0.64489 0.16273
vt 0.64489 0.83727
vt 0.14730 0.83727
vt 0.14730 0.16273
# 16 texture vertices

vn 0.00000 -1.00000 0.00000
vn 0.00000 1.00000 0.00000
vn 0.31494 0.01394 -0.94901
vn 0.31494 -0.01394 -0.94901
vn -0.31494 -0.01394 -0.94901
vn -0.31494 0.01394 -0.94901
vn 0.46320 0.00000 -0.88625
vn -0.46321 0.00000 -0.88625
vn -1.00000 0.00000 0.00000
vn 1.00000 0.00000 0.00000
vn 0.01588 -0.01888 -0.99970
vn 0.01588 0.01888 -0.99970
vn -0.01588 -0.01888 -0.99970
vn -0.01588 0.01888 -0.99970
vn 0.00000 -0.88423 -0.46704
vn 0.00000 0.88425 -0.46702
# 16 normal vertices

g obj1
f 3/4/2 5/3/2 6/2/2 4/1/2
f 7/8/1 1/7/1 2/6/1 8/5/1
f 7/8/9 5/3/9 3/4/9 1/7/9
f 2/6/10 4/1/10 6/2/10 8/5/10
f 1/7/12 3/4/11 10/10/4 9/9/3
f 3/4/11 4/1/13 11/11/5 10/10/4
f 4/1/13 2/6/14 12/12/6 11/11/5
f 2/6/14 1/7/12 9/9/3 12/12/6
f 13/16/7 14/15/7 15/14/8 16/13/8
f 9/9/3 10/10/4 14/15/7 13/16/7
f 10/10/15 11/11/15 15/14/15 14/15/15
f 11/11/5 12/12/6 16/13/8 15/14/8
f 12/12/16 9/9/16 13/16/16 16/13/16
# 13 elements

